<?xml version="1.0" encoding="UTF-8" standalone="no"?>
<!-- Uploaded to: SVG Repo, www.svgrepo.com, Generator: SVG Repo Mixer Tools -->

<svg
   fill="#000000"
   width="800px"
   height="800px"
   viewBox="0 0 36 36"
   version="1.1"
   preserveAspectRatio="xMidYMid meet"
   id="svg1"
   sodipodi:docname="light-controller.svg"
   inkscape:version="1.4 (86a8ad7, 2024-10-11)"
   xmlns:inkscape="http://www.inkscape.org/namespaces/inkscape"
   xmlns:sodipodi="http://sodipodi.sourceforge.net/DTD/sodipodi-0.dtd"
   xmlns="http://www.w3.org/2000/svg"
   xmlns:svg="http://www.w3.org/2000/svg"
   xmlns:rdf="http://www.w3.org/1999/02/22-rdf-syntax-ns#"
   xmlns:cc="http://creativecommons.org/ns#"
   xmlns:dc="http://purl.org/dc/elements/1.1/">
  <defs
     id="defs1" />
  <sodipodi:namedview
     id="namedview1"
     pagecolor="#ffffff"
     bordercolor="#000000"
     borderopacity="0.25"
     inkscape:showpageshadow="2"
     inkscape:pageopacity="0.0"
     inkscape:pagecheckerboard="0"
     inkscape:deskcolor="#d1d1d1"
     inkscape:zoom="1.00875"
     inkscape:cx="399.50434"
     inkscape:cy="400"
     inkscape:window-width="1920"
     inkscape:window-height="1009"
     inkscape:window-x="-8"
     inkscape:window-y="-8"
     inkscape:window-maximized="1"
     inkscape:current-layer="svg1" />
  <title
     id="title1">server-solid</title>
  <path
     class="clr-i-solid clr-i-solid-path-1"
     d="M26.5,2h-17C8.7,2,8,2.7,8,3.5V34h20V3.5C28,2.7,27.3,2,26.5,2z M18,30.5c-1.5,0-2.8-1.2-2.8-2.8S16.5,25,18,25s2.8,1.2,2.8,2.8S19.5,30.5,18,30.5z M23,22.6H13V21h10V22.6z M24,11.6H12V10h12V11.6z M24,7.6H12V6h12V7.6z"
     id="path1"
     style="fill:#ffffff" />
  <circle
     class="clr-i-solid clr-i-solid-path-2"
     cx="18"
     cy="27.8"
     r="1.2"
     id="circle1"
     style="fill:#ffffff" />
  <metadata
     id="metadata3">
    <rdf:RDF>
      <cc:Work
         rdf:about="">
        <dc:title>server-solid</dc:title>
      </cc:Work>
    </rdf:RDF>
  </metadata>
</svg>
