<?xml version="1.0" encoding="UTF-8" standalone="no"?>
<!-- Uploaded to: SVG Repo, www.svgrepo.com, Generator: SVG Repo Mixer Tools -->

<svg
   fill="#000000"
   width="800px"
   height="800px"
   viewBox="0 0 36 36"
   version="1.1"
   preserveAspectRatio="xMidYMid meet"
   id="svg1"
   sodipodi:docname="light-switch.svg"
   inkscape:version="1.4 (86a8ad7, 2024-10-11)"
   xmlns:inkscape="http://www.inkscape.org/namespaces/inkscape"
   xmlns:sodipodi="http://sodipodi.sourceforge.net/DTD/sodipodi-0.dtd"
   xmlns="http://www.w3.org/2000/svg"
   xmlns:svg="http://www.w3.org/2000/svg"
   xmlns:rdf="http://www.w3.org/1999/02/22-rdf-syntax-ns#"
   xmlns:cc="http://creativecommons.org/ns#"
   xmlns:dc="http://purl.org/dc/elements/1.1/">
  <defs
     id="defs1" />
  <sodipodi:namedview
     id="namedview1"
     pagecolor="#ffffff"
     bordercolor="#000000"
     borderopacity="0.25"
     inkscape:showpageshadow="2"
     inkscape:pageopacity="0.0"
     inkscape:pagecheckerboard="0"
     inkscape:deskcolor="#d1d1d1"
     inkscape:zoom="1.00875"
     inkscape:cx="399.50434"
     inkscape:cy="400"
     inkscape:window-width="1920"
     inkscape:window-height="1009"
     inkscape:window-x="-8"
     inkscape:window-y="-8"
     inkscape:window-maximized="1"
     inkscape:current-layer="svg1" />
  <title
     id="title1">network-switch-solid</title>
  <path
     d="M33.91,18.47,30.78,8.41A2,2,0,0,0,28.87,7H7.13A2,2,0,0,0,5.22,8.41L2.09,18.48a2,2,0,0,0-.09.59V27a2,2,0,0,0,2,2H32a2,2,0,0,0,2-2V19.06A2,2,0,0,0,33.91,18.47ZM8.92,25H7.12V22h1.8Zm5,0h-1.8V22h1.8Zm5,0h-1.8V22h1.8Zm5,0H22.1V22h1.8Zm5,0H27.1V22h1.8ZM31,19.4H5V18H31Z"
     class="clr-i-solid clr-i-solid-path-1"
     id="path1"
     style="fill:#ffffff" />
  <metadata
     id="metadata1">
    <rdf:RDF>
      <cc:Work
         rdf:about="">
        <dc:title>network-switch-solid</dc:title>
      </cc:Work>
    </rdf:RDF>
  </metadata>
</svg>
